<svg xmlns="http://www.w3.org/2000/svg" xmlns:xlink="http://www.w3.org/1999/xlink" width="500" zoomAndPan="magnify" viewBox="0 0 375 374.999991" height="500" preserveAspectRatio="xMidYMid meet" version="1.0"><defs><g/><clipPath id="4a8fc8d3e5"><path d="M 92.113281 90.816406 L 279.613281 90.816406 L 279.613281 278 L 92.113281 278 Z M 92.113281 90.816406 " clip-rule="nonzero"/></clipPath></defs><g clip-path="url(#4a8fc8d3e5)"><path fill="#122620" d="M 185.699219 277.988281 C 133.996094 277.988281 92.113281 235.816406 92.113281 184.402344 C 92.113281 132.988281 133.996094 90.816406 185.699219 90.816406 C 237.402344 90.816406 279.285156 132.699219 279.285156 184.402344 C 279.285156 236.105469 237.113281 277.988281 185.699219 277.988281 Z M 185.699219 96.59375 C 137.175781 96.59375 97.890625 135.875 97.890625 184.402344 C 97.890625 232.929688 137.175781 272.210938 185.699219 272.210938 C 234.226562 272.210938 273.507812 232.929688 273.507812 184.402344 C 273.507812 135.875 233.9375 96.59375 185.699219 96.59375 Z M 185.699219 96.59375 " fill-opacity="1" fill-rule="nonzero"/></g><path stroke-linecap="butt" transform="matrix(1.039987, 0, 0, 1.039987, 103.664059, 125.128497)" fill="none" stroke-linejoin="miter" d="M 27.824878 40.768644 C 27.933804 39.90475 28.298141 38.706568 28.921647 37.177853 C 29.548909 35.645381 30.224999 34.124178 30.95743 32.60673 C 31.70113 31.078015 32.23449 29.902369 32.553755 29.076036 C 32.673949 28.918282 32.760338 28.591505 32.812923 28.099461 C 32.865508 27.607418 33.011994 27.164203 33.252381 26.762305 C 33.504037 26.352894 33.932228 26.146311 34.529441 26.146311 C 35.445919 26.146311 35.904158 26.597038 35.904158 27.502248 C 35.904158 28.392434 35.64499 29.549299 35.126654 30.972845 C 34.608318 32.381367 33.996081 33.906326 33.293698 35.540211 C 32.587559 37.177853 31.949029 38.73286 31.378109 40.208991 C 30.803432 41.670097 30.517971 42.894572 30.517971 43.878659 C 30.95743 43.987585 31.351816 44.179144 31.697374 44.457092 C 32.054199 44.723772 32.399756 44.990452 32.734046 45.257133 C 34.142567 46.079709 35.367042 46.684434 36.403714 47.071308 C 37.440386 47.443158 38.48457 47.71735 39.536266 47.890129 C 40.59923 48.047883 41.842485 48.261979 43.266031 48.528659 C 43.863244 48.581244 44.636992 48.607536 45.579763 48.607536 C 46.537557 48.607536 47.495352 48.64134 48.453147 48.705193 C 49.410941 48.761534 50.214738 48.892996 50.868292 49.107092 C 51.51809 49.317431 51.844867 49.6705 51.844867 50.162544 C 51.844867 50.549418 51.491797 50.808586 50.785659 50.940048 C 50.083276 51.075266 49.185578 51.139119 48.092565 51.139119 C 46.511265 51.139119 44.847331 51.033949 43.108277 50.819854 C 41.365466 50.609515 40.193576 50.474297 39.596363 50.421712 C 37.523019 50.038594 35.825281 49.54655 34.510661 48.945581 C 33.207309 48.348368 32.189417 47.788715 31.456986 47.270379 C 30.724555 46.752043 30.112317 46.440291 29.620274 46.331365 C 29.567689 46.879749 29.443739 47.435646 29.240912 48.010323 C 29.056865 48.581244 28.910379 49.167189 28.805209 49.764402 C 28.47092 51.345702 28.151655 53.137341 27.847415 55.131808 C 27.554442 57.11125 27.329079 58.887866 27.167568 60.457898 C 27.009814 61.825103 26.915912 62.936896 26.88962 63.789521 C 26.863327 64.627122 26.848303 65.370821 26.848303 66.024375 C 26.848303 66.674173 26.788206 67.466701 26.668012 68.398204 C 26.510258 70.629302 26.589135 73.145861 26.9084 75.936611 C 27.242689 78.742387 27.873707 81.442992 28.805209 84.034672 C 29.732955 86.630108 31.010015 88.737256 32.632632 90.359873 C 32.632632 90.359873 32.647656 90.374897 32.673949 90.401189 C 32.715265 90.43875 32.734046 90.487579 32.734046 90.540164 C 32.78663 90.540164 32.827947 90.566456 32.854239 90.619041 C 32.880532 90.671626 32.918092 90.697918 32.974433 90.697918 C 34.06369 91.682005 35.205531 92.500826 36.403714 93.15438 C 37.601896 93.804178 39.044222 94.130955 40.734448 94.130955 C 43.232227 94.130955 45.572251 93.45862 47.75452 92.113952 C 49.93679 90.784307 51.938768 89.030228 53.760456 86.847959 C 55.582144 84.669445 57.182225 82.280593 58.56821 79.688913 C 59.961707 77.108501 61.092281 74.505553 61.95993 71.887581 C 62.835092 69.280877 63.439817 66.888269 63.774106 64.705999 C 63.93186 63.455232 64.119663 61.986613 64.333759 60.296387 C 64.559122 58.609917 64.724389 56.919692 64.829558 55.229466 C 64.938484 53.542996 64.912191 52.096914 64.750681 50.902487 C 64.698096 50.357859 64.671804 49.584111 64.671804 48.588756 C 64.671804 47.578376 64.619219 46.797116 64.510293 46.252488 C 64.17976 43.6871 63.819179 41.452246 63.436061 39.551681 C 63.060455 37.636092 62.575924 35.780599 61.97871 33.985204 C 61.381497 32.189808 60.536384 30.172805 59.443371 27.941707 C 58.56821 26.037386 57.403832 24.110528 55.953994 22.153622 C 54.51918 20.185448 52.874027 18.371272 51.026046 16.711094 C 49.178066 15.047161 47.176087 13.698736 45.02011 12.658308 C 42.867889 11.621636 40.648059 11.1033 38.36062 11.1033 C 35.419627 11.1033 32.899312 12.046071 30.799676 13.935368 C 28.711308 15.813397 27.036106 17.999422 25.770315 20.500957 C 24.309208 23.663557 23.576777 27.017717 23.576777 30.552167 C 23.576777 34.090373 24.692326 37.27551 26.92718 40.107578 C 27.141276 40.389282 27.246445 40.539524 27.246445 40.569573 C 27.246445 40.595865 27.44176 40.659718 27.824878 40.768644 Z M 21.202949 28.997159 C 21.202949 26.935083 21.608603 24.749058 22.419911 22.435326 C 23.246244 20.121595 24.361793 17.954349 25.770315 15.929834 C 27.19386 13.909075 28.775161 12.301483 30.517971 11.1033 C 32.103028 9.961459 33.504037 9.296637 34.728512 9.108834 C 35.952987 8.921031 37.489214 8.830885 39.337195 8.830885 C 41.410539 8.830885 43.465102 9.296637 45.500885 10.224383 C 47.547937 11.144617 49.497331 12.354068 51.345311 13.856491 C 53.208316 15.347645 54.894786 16.974018 56.412233 18.743122 C 57.940948 20.512225 59.199228 22.240011 60.183315 23.930237 C 63.067967 28.839405 65.058678 34.112909 66.147934 39.750752 C 67.237191 45.388595 67.563968 51.094046 67.124509 56.867107 C 66.685051 62.636411 65.569501 68.221669 63.774106 73.62288 C 62.962797 76.07183 61.843492 78.629705 60.423703 81.304018 C 59.011425 83.974575 57.298663 86.457329 55.274147 88.744768 C 53.253388 91.032207 51.007266 92.895212 48.532024 94.330026 C 46.060538 95.779864 43.35242 96.504783 40.415183 96.504783 C 37.74087 96.504783 35.261872 95.738547 32.974433 94.209832 C 30.686994 92.681116 28.722576 90.41997 27.088691 87.426392 C 25.732754 84.861004 24.733643 81.96884 24.095113 78.749899 C 23.471607 75.545981 23.159855 72.199334 23.159855 68.717469 C 23.159855 65.231847 23.362682 61.813835 23.775848 58.463431 C 24.189014 55.109272 24.722375 52.044329 25.372173 49.264846 C 25.477342 48.720218 25.586268 48.220662 25.691437 47.769935 C 25.796607 47.304184 25.909289 46.823409 26.029483 46.331365 C 26.243578 45.403619 26.416357 44.776357 26.547819 44.457092 C 26.694305 44.126559 26.735621 43.878659 26.668012 43.720905 C 26.615428 43.548126 26.423869 43.300227 26.08958 42.980962 C 25.770315 42.650429 25.285783 42.075752 24.635985 41.264443 C 23.276292 39.35261 22.367326 37.403216 21.901575 35.420018 C 21.435824 33.425551 21.202949 31.284598 21.202949 28.997159 Z M 75.124912 60.375265 C 73.983071 60.375265 73.179274 59.804344 72.713523 58.662502 C 72.247772 57.516905 72.041189 56.100871 72.093774 54.410645 C 72.161383 52.724175 72.379234 51.033949 72.751084 49.343723 C 73.137958 47.657253 73.614977 46.24122 74.189654 45.095622 C 74.760575 43.953781 75.34652 43.379104 75.943733 43.379104 C 76.980405 43.379104 77.592642 43.611979 77.780445 44.07773 C 77.979516 44.543482 77.938199 45.268401 77.660251 46.252488 C 77.393571 47.225307 77.081818 48.46105 76.721237 49.963473 C 76.364411 51.465896 76.18412 53.250023 76.18412 55.308343 C 76.304314 55.203173 76.390704 55.124296 76.443288 55.071711 C 76.495873 55.019126 76.548458 54.962786 76.601043 54.910201 L 80.432222 48.446025 C 80.766511 47.901397 81.217238 47.18399 81.788158 46.293804 C 82.359079 45.388595 82.986341 44.569774 83.662431 43.841099 C 84.342278 43.093643 85.0071 42.721794 85.656898 42.721794 C 86.922689 42.721794 87.74151 43.367836 88.11336 44.656163 C 88.496477 45.933223 88.691792 47.225307 88.691792 48.528659 C 89.289006 48.419733 90.021437 47.923933 90.88533 47.029992 C 91.764248 46.128538 92.55302 45.347278 93.259158 44.69748 C 93.646032 44.258021 93.984078 43.878659 94.27705 43.559394 C 94.581291 43.228861 94.95314 42.947157 95.392599 42.721794 C 95.937228 42.455114 96.429271 42.323652 96.86873 42.323652 C 97.413358 42.323652 97.875353 42.541503 98.247203 42.980962 C 98.630321 43.42042 98.851928 44.224217 98.904513 45.396107 C 98.957098 46.564241 98.930806 47.916421 98.825636 49.445137 C 98.71671 50.962584 98.59276 52.483787 98.446274 54.012503 C 98.311056 55.52995 98.247203 56.859595 98.247203 58.001436 C 98.247203 60.517995 98.453786 62.279586 98.863197 63.289965 C 99.276363 64.285321 99.836015 64.784876 100.542154 64.784876 C 101.353463 64.784876 102.262429 64.24776 103.272808 63.169771 C 104.283188 62.080515 105.289811 60.795943 106.285166 59.319812 C 107.295546 57.843682 108.159439 56.506525 108.880602 55.308343 C 109.252452 54.71113 109.61679 54.113916 109.977371 53.512947 C 110.334197 52.915734 110.946434 52.615249 111.810327 52.615249 C 111.971838 52.615249 112.144616 52.731687 112.328663 52.957051 C 112.53149 53.16739 112.629148 53.407778 112.629148 53.674458 C 112.629148 54.004991 112.463881 54.470742 112.129592 55.071711 C 111.810327 55.668924 111.472282 56.254869 111.111701 56.82579 C 110.766143 57.396711 110.480683 57.851194 110.255319 58.181727 C 110.041224 58.553577 109.849665 58.880354 109.676886 59.158302 C 109.519132 59.424982 109.305037 59.778051 109.038357 60.21751 C 108.824261 60.548043 108.60641 60.83726 108.381047 61.073891 C 108.166951 61.314279 107.922808 61.652324 107.641103 62.091783 C 106.604431 63.620498 105.361176 64.957655 103.911338 66.103253 C 102.476524 67.245094 101.079271 67.819771 99.723334 67.819771 C 98.96461 67.819771 98.224667 67.571871 97.50726 67.079827 C 96.804877 66.587784 96.2302 65.742671 95.794497 64.544489 C 95.035774 62.538754 94.66768 60.416581 94.693973 58.181727 C 94.724021 55.946873 94.8968 53.768359 95.216065 51.638674 C 95.546598 49.512746 95.711864 47.657253 95.711864 46.072197 C 95.167236 46.459071 94.502414 47.090089 93.717398 47.969006 C 92.932381 48.832899 92.128585 49.636696 91.306009 50.384151 C 90.4947 51.112826 89.702172 51.48092 88.93218 51.48092 C 87.681413 51.48092 86.821276 50.879951 86.355525 49.685525 C 85.889773 48.487342 85.656898 47.285404 85.656898 46.072197 C 84.74042 46.673166 83.857746 47.736131 83.005121 49.264846 C 82.16752 50.793562 81.322407 52.40491 80.473538 54.09138 C 79.635937 55.781606 78.790824 57.238956 77.938199 58.463431 C 77.100598 59.68415 76.217925 60.32268 75.286423 60.375265 Z M 112.704269 52.217107 C 113.740941 51.672479 114.882782 50.921267 116.13355 49.963473 C 117.395585 49.005678 118.082944 47.875105 118.188113 46.571753 C 117.481974 46.680678 116.730763 47.056284 115.934479 47.709838 C 115.149462 48.359636 114.473372 49.09958 113.898695 49.922156 C 113.327775 50.733465 112.929632 51.4997 112.704269 52.217107 Z M 109.030845 54.174013 C 109.030845 52.818077 109.477815 51.345702 110.368001 49.764402 C 111.273211 48.183101 112.38876 46.830921 113.718405 45.715372 C 115.063073 44.596066 116.385205 44.04017 117.688557 44.04017 C 119.483953 44.04017 120.422967 44.723772 120.501845 46.094733 C 120.595746 47.45067 120.017313 48.919289 118.766546 50.500589 C 118.101724 51.206728 117.117637 52.025548 115.814285 52.957051 C 114.510933 53.873529 113.233873 54.384353 111.983106 54.493278 C 111.983106 55.36844 112.009398 56.1497 112.065739 56.82579 C 112.118324 57.505637 112.497686 58.196751 113.200069 58.899134 C 113.906207 59.620297 114.803905 59.977122 115.893162 59.977122 C 117.316708 59.977122 118.785326 59.533908 120.302774 58.639966 C 121.831489 57.738512 123.003379 56.987301 123.814687 56.386331 C 124.145221 56.108383 124.404389 55.886776 124.592191 55.729021 C 124.791262 55.556243 125.024138 55.364684 125.290818 55.150588 C 126.43266 54.286695 127.153823 53.648165 127.443039 53.234999 C 127.751036 52.821833 128.010204 52.551397 128.224299 52.416178 C 128.449663 52.284716 128.967999 52.217107 129.779307 52.217107 C 129.899501 52.818077 129.944574 53.223731 129.918281 53.43407 C 129.891989 53.648165 129.685406 53.974942 129.298532 54.410645 C 128.314445 55.394732 127.071189 56.514037 125.568766 57.764805 C 124.081368 59.015572 122.477531 60.104828 120.761013 61.036331 C 119.04825 61.967833 117.343 62.433584 115.65653 62.433584 C 114.777613 62.433584 113.947524 62.287098 113.162508 61.994125 C 112.377492 61.686129 111.62628 61.175305 110.908873 60.457898 C 109.936054 59.485079 109.376402 58.482212 109.229916 57.44554 C 109.098454 56.408868 109.030845 55.315855 109.030845 54.174013 Z M 127.818645 66.681685 C 127.274017 66.681685 126.94724 66.339884 126.84207 65.663794 C 126.7369 64.972679 126.706852 64.24776 126.763193 63.489036 C 126.815778 62.730313 126.84207 62.264562 126.84207 62.091783 C 126.789485 61.12272 126.774461 60.131121 126.800753 59.120741 C 126.827046 58.110362 126.815778 57.084958 126.763193 56.048286 C 126.763193 55.661412 126.774461 54.944005 126.800753 53.892309 C 126.827046 52.829345 126.909679 51.698771 127.041141 50.500589 C 127.187627 49.291138 127.39421 48.254467 127.660891 47.390573 C 127.938839 46.511656 128.291908 46.072197 128.716343 46.072197 C 129.805599 46.072197 130.365252 46.432779 130.391544 47.150186 C 130.417837 47.856324 130.380276 48.780315 130.271351 49.922156 C 130.218766 50.30903 130.192473 50.733465 130.192473 51.199216 C 130.192473 51.653699 130.192473 52.096914 130.192473 52.536372 C 130.192473 53.081001 130.166181 53.441582 130.113596 53.614361 C 130.061011 53.772115 130.034719 54.125185 130.034719 54.669813 C 130.631932 54.23411 131.17656 53.727043 131.668604 53.156122 C 132.160648 52.585201 133.032053 52.295985 134.28282 52.295985 C 134.669694 52.295985 135.173006 52.284716 135.800267 52.258424 C 136.423773 52.232132 137.088595 52.217107 137.794734 52.217107 C 138.98916 52.217107 140.108466 52.284716 141.145137 52.416178 C 142.181809 52.551397 142.700145 52.889442 142.700145 53.43407 C 142.700145 53.978698 142.414685 54.33928 141.843764 54.512059 C 141.272843 54.669813 140.574217 54.752446 139.747884 54.752446 C 139.203256 54.752446 138.643603 54.737422 138.072682 54.71113 C 137.501762 54.684837 137.002206 54.669813 136.577771 54.669813 C 135.0453 54.669813 134.023652 54.752446 133.505316 54.910201 C 132.98698 55.071711 132.401035 55.695217 131.747481 56.784473 C 131.364363 57.490612 130.992514 58.256848 130.631932 59.079425 C 130.286375 59.890733 130.034719 60.788431 129.873208 61.772518 C 129.70043 62.478657 129.629065 63.214844 129.655357 63.988592 C 129.692918 64.747316 129.61404 65.385845 129.414969 65.904181 C 129.227167 66.422517 128.697562 66.681685 127.818645 66.681685 Z M 127.818645 66.681685 " stroke="#fffef9" stroke-width="6.128468" stroke-opacity="1" stroke-miterlimit="4"/><g fill="#122620" fill-opacity="1"><g transform="translate(125.715027, 194.807605)"><g><path d="M 6.890625 -27.28125 C 6.992188 -28.1875 7.375 -29.429688 8.03125 -31.015625 C 8.6875 -32.609375 9.394531 -34.195312 10.15625 -35.78125 C 10.914062 -37.363281 11.46875 -38.582031 11.8125 -39.4375 C 11.925781 -39.601562 12.007812 -39.941406 12.0625 -40.453125 C 12.125 -40.960938 12.28125 -41.425781 12.53125 -41.84375 C 12.789062 -42.269531 13.234375 -42.484375 13.859375 -42.484375 C 14.816406 -42.484375 15.296875 -42.015625 15.296875 -41.078125 C 15.296875 -40.148438 15.023438 -38.945312 14.484375 -37.46875 C 13.953125 -36 13.316406 -34.414062 12.578125 -32.71875 C 11.835938 -31.019531 11.171875 -29.40625 10.578125 -27.875 C 9.984375 -26.34375 9.6875 -25.066406 9.6875 -24.046875 C 10.144531 -23.929688 10.554688 -23.734375 10.921875 -23.453125 C 11.285156 -23.171875 11.640625 -22.890625 11.984375 -22.609375 C 13.453125 -21.753906 14.722656 -21.128906 15.796875 -20.734375 C 16.878906 -20.335938 17.972656 -20.050781 19.078125 -19.875 C 20.179688 -19.707031 21.472656 -19.484375 22.953125 -19.203125 C 23.566406 -19.148438 24.367188 -19.125 25.359375 -19.125 C 26.359375 -19.125 27.351562 -19.09375 28.34375 -19.03125 C 29.332031 -18.976562 30.164062 -18.835938 30.84375 -18.609375 C 31.53125 -18.378906 31.875 -18.007812 31.875 -17.5 C 31.875 -17.101562 31.503906 -16.832031 30.765625 -16.6875 C 30.023438 -16.550781 29.085938 -16.484375 27.953125 -16.484375 C 26.316406 -16.484375 24.59375 -16.597656 22.78125 -16.828125 C 20.96875 -17.054688 19.75 -17.195312 19.125 -17.25 C 16.96875 -17.644531 15.207031 -18.15625 13.84375 -18.78125 C 12.488281 -19.40625 11.425781 -19.984375 10.65625 -20.515625 C 9.894531 -21.054688 9.257812 -21.382812 8.75 -21.5 C 8.695312 -20.9375 8.570312 -20.351562 8.375 -19.75 C 8.175781 -19.15625 8.019531 -18.550781 7.90625 -17.9375 C 7.5625 -16.289062 7.234375 -14.429688 6.921875 -12.359375 C 6.609375 -10.296875 6.367188 -8.441406 6.203125 -6.796875 C 6.035156 -5.378906 5.9375 -4.234375 5.90625 -3.359375 C 5.875 -2.484375 5.859375 -1.703125 5.859375 -1.015625 C 5.859375 -0.335938 5.800781 0.476562 5.6875 1.4375 C 5.519531 3.757812 5.601562 6.378906 5.9375 9.296875 C 6.28125 12.222656 6.929688 15.03125 7.890625 17.71875 C 8.859375 20.40625 10.191406 22.601562 11.890625 24.3125 C 11.890625 24.3125 11.90625 24.320312 11.9375 24.34375 C 11.96875 24.375 11.984375 24.414062 11.984375 24.46875 C 12.035156 24.46875 12.078125 24.492188 12.109375 24.546875 C 12.140625 24.609375 12.179688 24.640625 12.234375 24.640625 C 13.367188 25.660156 14.554688 26.507812 15.796875 27.1875 C 17.046875 27.875 18.550781 28.21875 20.3125 28.21875 C 22.914062 28.21875 25.347656 27.519531 27.609375 26.125 C 29.878906 24.738281 31.960938 22.910156 33.859375 20.640625 C 35.765625 18.378906 37.4375 15.898438 38.875 13.203125 C 40.320312 10.515625 41.5 7.8125 42.40625 5.09375 C 43.3125 2.375 43.9375 -0.113281 44.28125 -2.375 C 44.445312 -3.675781 44.644531 -5.207031 44.875 -6.96875 C 45.101562 -8.726562 45.269531 -10.484375 45.375 -12.234375 C 45.488281 -13.992188 45.460938 -15.492188 45.296875 -16.734375 C 45.242188 -17.304688 45.21875 -18.113281 45.21875 -19.15625 C 45.21875 -20.207031 45.160156 -21.019531 45.046875 -21.59375 C 44.703125 -24.25 44.332031 -26.566406 43.9375 -28.546875 C 43.539062 -30.535156 43.03125 -32.460938 42.40625 -34.328125 C 41.78125 -36.203125 40.898438 -38.300781 39.765625 -40.625 C 38.859375 -42.601562 37.65625 -44.613281 36.15625 -46.65625 C 34.65625 -48.695312 32.941406 -50.582031 31.015625 -52.3125 C 29.085938 -54.039062 27.003906 -55.441406 24.765625 -56.515625 C 22.535156 -57.585938 20.226562 -58.125 17.84375 -58.125 C 14.78125 -58.125 12.160156 -57.144531 9.984375 -55.1875 C 7.804688 -53.238281 6.066406 -50.960938 4.765625 -48.359375 C 3.234375 -45.066406 2.46875 -41.578125 2.46875 -37.890625 C 2.46875 -34.210938 3.628906 -30.898438 5.953125 -27.953125 C 6.171875 -27.671875 6.28125 -27.515625 6.28125 -27.484375 C 6.28125 -27.460938 6.484375 -27.394531 6.890625 -27.28125 Z M 0 -39.515625 C 0 -41.671875 0.421875 -43.953125 1.265625 -46.359375 C 2.117188 -48.765625 3.28125 -51.015625 4.75 -53.109375 C 6.226562 -55.210938 7.875 -56.882812 9.6875 -58.125 C 11.332031 -59.3125 12.789062 -60.003906 14.0625 -60.203125 C 15.34375 -60.410156 16.941406 -60.515625 18.859375 -60.515625 C 21.015625 -60.515625 23.15625 -60.03125 25.28125 -59.0625 C 27.40625 -58.101562 29.429688 -56.84375 31.359375 -55.28125 C 33.285156 -53.71875 35.039062 -52.015625 36.625 -50.171875 C 38.207031 -48.335938 39.507812 -46.539062 40.53125 -44.78125 C 43.539062 -39.6875 45.609375 -34.207031 46.734375 -28.34375 C 47.867188 -22.476562 48.207031 -16.539062 47.75 -10.53125 C 47.300781 -4.53125 46.144531 1.273438 44.28125 6.890625 C 43.425781 9.429688 42.257812 12.085938 40.78125 14.859375 C 39.3125 17.640625 37.53125 20.21875 35.4375 22.59375 C 33.34375 24.976562 31.003906 26.921875 28.421875 28.421875 C 25.847656 29.921875 23.03125 30.671875 19.96875 30.671875 C 17.195312 30.671875 14.617188 29.878906 12.234375 28.296875 C 9.859375 26.710938 7.820312 24.363281 6.125 21.25 C 4.707031 18.582031 3.671875 15.578125 3.015625 12.234375 C 2.367188 8.890625 2.046875 5.40625 2.046875 1.78125 C 2.046875 -1.84375 2.253906 -5.394531 2.671875 -8.875 C 3.097656 -12.363281 3.648438 -15.550781 4.328125 -18.4375 C 4.441406 -19.007812 4.554688 -19.535156 4.671875 -20.015625 C 4.785156 -20.492188 4.898438 -20.988281 5.015625 -21.5 C 5.242188 -22.46875 5.425781 -23.117188 5.5625 -23.453125 C 5.707031 -23.796875 5.75 -24.050781 5.6875 -24.21875 C 5.632812 -24.382812 5.4375 -24.640625 5.09375 -24.984375 C 4.757812 -25.328125 4.25 -25.921875 3.5625 -26.765625 C 2.144531 -28.753906 1.195312 -30.78125 0.71875 -32.84375 C 0.238281 -34.914062 0 -37.140625 0 -39.515625 Z M 0 -39.515625 "/></g></g></g><g fill="#122620" fill-opacity="1"><g transform="translate(177.291963, 194.807605)"><g><path d="M 4.5 -6.890625 C 3.3125 -6.890625 2.476562 -7.484375 2 -8.671875 C 1.519531 -9.859375 1.304688 -11.328125 1.359375 -13.078125 C 1.410156 -14.835938 1.632812 -16.59375 2.03125 -18.34375 C 2.4375 -20.101562 2.9375 -21.578125 3.53125 -22.765625 C 4.125 -23.960938 4.734375 -24.5625 5.359375 -24.5625 C 6.429688 -24.5625 7.066406 -24.316406 7.265625 -23.828125 C 7.460938 -23.347656 7.421875 -22.597656 7.140625 -21.578125 C 6.859375 -20.566406 6.53125 -19.28125 6.15625 -17.71875 C 5.789062 -16.15625 5.609375 -14.300781 5.609375 -12.15625 C 5.722656 -12.269531 5.804688 -12.351562 5.859375 -12.40625 C 5.921875 -12.46875 5.976562 -12.523438 6.03125 -12.578125 L 10.03125 -19.296875 C 10.363281 -19.859375 10.828125 -20.609375 11.421875 -21.546875 C 12.023438 -22.484375 12.679688 -23.332031 13.390625 -24.09375 C 14.097656 -24.851562 14.789062 -25.234375 15.46875 -25.234375 C 16.769531 -25.234375 17.617188 -24.566406 18.015625 -23.234375 C 18.410156 -21.910156 18.609375 -20.566406 18.609375 -19.203125 C 19.234375 -19.316406 20 -19.84375 20.90625 -20.78125 C 21.8125 -21.71875 22.632812 -22.523438 23.375 -23.203125 C 23.769531 -23.648438 24.125 -24.046875 24.4375 -24.390625 C 24.75 -24.734375 25.128906 -25.015625 25.578125 -25.234375 C 26.148438 -25.523438 26.660156 -25.671875 27.109375 -25.671875 C 27.671875 -25.671875 28.15625 -25.441406 28.5625 -24.984375 C 28.957031 -24.535156 29.179688 -23.703125 29.234375 -22.484375 C 29.285156 -21.265625 29.253906 -19.859375 29.140625 -18.265625 C 29.035156 -16.679688 28.910156 -15.097656 28.765625 -13.515625 C 28.628906 -11.929688 28.5625 -10.539062 28.5625 -9.34375 C 28.5625 -6.738281 28.769531 -4.910156 29.1875 -3.859375 C 29.613281 -2.816406 30.195312 -2.296875 30.9375 -2.296875 C 31.78125 -2.296875 32.726562 -2.859375 33.78125 -3.984375 C 34.832031 -5.117188 35.878906 -6.453125 36.921875 -7.984375 C 37.972656 -9.515625 38.867188 -10.90625 39.609375 -12.15625 C 40.003906 -12.78125 40.382812 -13.398438 40.75 -14.015625 C 41.113281 -14.640625 41.75 -14.953125 42.65625 -14.953125 C 42.832031 -14.953125 43.019531 -14.835938 43.21875 -14.609375 C 43.414062 -14.390625 43.515625 -14.140625 43.515625 -13.859375 C 43.515625 -13.515625 43.34375 -13.03125 43 -12.40625 C 42.65625 -11.78125 42.300781 -11.171875 41.9375 -10.578125 C 41.570312 -9.984375 41.273438 -9.515625 41.046875 -9.171875 C 40.816406 -8.773438 40.617188 -8.4375 40.453125 -8.15625 C 40.285156 -7.875 40.054688 -7.503906 39.765625 -7.046875 C 39.546875 -6.710938 39.320312 -6.414062 39.09375 -6.15625 C 38.863281 -5.90625 38.609375 -5.550781 38.328125 -5.09375 C 37.253906 -3.507812 35.960938 -2.125 34.453125 -0.9375 C 32.953125 0.25 31.492188 0.84375 30.078125 0.84375 C 29.285156 0.84375 28.519531 0.585938 27.78125 0.078125 C 27.050781 -0.429688 26.457031 -1.304688 26 -2.546875 C 25.207031 -4.640625 24.828125 -6.847656 24.859375 -9.171875 C 24.890625 -11.492188 25.070312 -13.757812 25.40625 -15.96875 C 25.75 -18.1875 25.921875 -20.113281 25.921875 -21.75 C 25.359375 -21.351562 24.664062 -20.703125 23.84375 -19.796875 C 23.019531 -18.890625 22.179688 -18.050781 21.328125 -17.28125 C 20.484375 -16.519531 19.660156 -16.140625 18.859375 -16.140625 C 17.554688 -16.140625 16.664062 -16.765625 16.1875 -18.015625 C 15.707031 -19.265625 15.46875 -20.507812 15.46875 -21.75 C 14.5 -21.132812 13.578125 -20.03125 12.703125 -18.4375 C 11.828125 -16.851562 10.945312 -15.179688 10.0625 -13.421875 C 9.1875 -11.671875 8.3125 -10.15625 7.4375 -8.875 C 6.5625 -7.601562 5.640625 -6.941406 4.671875 -6.890625 Z M 4.5 -6.890625 "/></g></g></g><g fill="#122620" fill-opacity="1"><g transform="translate(216.973068, 194.807605)"><g><path d="M 3.90625 -15.375 C 4.988281 -15.945312 6.179688 -16.726562 7.484375 -17.71875 C 8.785156 -18.707031 9.492188 -19.882812 9.609375 -21.25 C 8.867188 -21.132812 8.085938 -20.734375 7.265625 -20.046875 C 6.441406 -19.367188 5.734375 -18.601562 5.140625 -17.75 C 4.546875 -16.90625 4.132812 -16.113281 3.90625 -15.375 Z M 0.078125 -13.34375 C 0.078125 -14.757812 0.546875 -16.285156 1.484375 -17.921875 C 2.421875 -19.566406 3.582031 -20.96875 4.96875 -22.125 C 6.351562 -23.289062 7.726562 -23.875 9.09375 -23.875 C 10.957031 -23.875 11.929688 -23.164062 12.015625 -21.75 C 12.109375 -20.332031 11.503906 -18.804688 10.203125 -17.171875 C 9.515625 -16.429688 8.488281 -15.578125 7.125 -14.609375 C 5.769531 -13.648438 4.441406 -13.113281 3.140625 -13 C 3.140625 -12.09375 3.164062 -11.285156 3.21875 -10.578125 C 3.28125 -9.867188 3.679688 -9.144531 4.421875 -8.40625 C 5.160156 -7.675781 6.09375 -7.3125 7.21875 -7.3125 C 8.695312 -7.3125 10.226562 -7.773438 11.8125 -8.703125 C 13.394531 -9.640625 14.613281 -10.421875 15.46875 -11.046875 C 15.8125 -11.328125 16.082031 -11.550781 16.28125 -11.71875 C 16.476562 -11.894531 16.71875 -12.097656 17 -12.328125 C 18.1875 -13.234375 18.9375 -13.894531 19.25 -14.3125 C 19.5625 -14.738281 19.828125 -15.019531 20.046875 -15.15625 C 20.273438 -15.300781 20.816406 -15.375 21.671875 -15.375 C 21.785156 -14.757812 21.828125 -14.335938 21.796875 -14.109375 C 21.765625 -13.878906 21.550781 -13.539062 21.15625 -13.09375 C 20.132812 -12.070312 18.84375 -10.910156 17.28125 -9.609375 C 15.726562 -8.304688 14.0625 -7.171875 12.28125 -6.203125 C 10.5 -5.242188 8.726562 -4.765625 6.96875 -4.765625 C 6.0625 -4.765625 5.195312 -4.914062 4.375 -5.21875 C 3.550781 -5.53125 2.773438 -6.054688 2.046875 -6.796875 C 1.023438 -7.816406 0.441406 -8.863281 0.296875 -9.9375 C 0.148438 -11.019531 0.078125 -12.15625 0.078125 -13.34375 Z M 0.078125 -13.34375 "/></g></g></g><g fill="#122620" fill-opacity="1"><g transform="translate(235.411615, 194.807605)"><g><path d="M 1.1875 -0.34375 C 0.625 -0.34375 0.285156 -0.695312 0.171875 -1.40625 C 0.0546875 -2.113281 0.0234375 -2.863281 0.078125 -3.65625 C 0.140625 -4.445312 0.171875 -4.925781 0.171875 -5.09375 C 0.109375 -6.113281 0.09375 -7.144531 0.125 -8.1875 C 0.15625 -9.238281 0.140625 -10.304688 0.078125 -11.390625 C 0.078125 -11.785156 0.09375 -12.535156 0.125 -13.640625 C 0.15625 -14.742188 0.238281 -15.914062 0.375 -17.15625 C 0.519531 -18.40625 0.734375 -19.484375 1.015625 -20.390625 C 1.296875 -21.296875 1.664062 -21.75 2.125 -21.75 C 3.257812 -21.75 3.835938 -21.378906 3.859375 -20.640625 C 3.890625 -19.910156 3.847656 -18.953125 3.734375 -17.765625 C 3.679688 -17.367188 3.65625 -16.925781 3.65625 -16.4375 C 3.65625 -15.957031 3.65625 -15.492188 3.65625 -15.046875 C 3.65625 -14.472656 3.625 -14.101562 3.5625 -13.9375 C 3.507812 -13.769531 3.484375 -13.398438 3.484375 -12.828125 C 4.109375 -13.285156 4.675781 -13.8125 5.1875 -14.40625 C 5.695312 -15 6.601562 -15.296875 7.90625 -15.296875 C 8.300781 -15.296875 8.820312 -15.304688 9.46875 -15.328125 C 10.125 -15.359375 10.820312 -15.375 11.5625 -15.375 C 12.800781 -15.375 13.957031 -15.300781 15.03125 -15.15625 C 16.113281 -15.019531 16.65625 -14.671875 16.65625 -14.109375 C 16.65625 -13.535156 16.359375 -13.164062 15.765625 -13 C 15.171875 -12.832031 14.445312 -12.75 13.59375 -12.75 C 13.03125 -12.75 12.453125 -12.757812 11.859375 -12.78125 C 11.265625 -12.8125 10.738281 -12.828125 10.28125 -12.828125 C 8.695312 -12.828125 7.632812 -12.742188 7.09375 -12.578125 C 6.550781 -12.410156 5.941406 -11.757812 5.265625 -10.625 C 4.867188 -9.882812 4.484375 -9.085938 4.109375 -8.234375 C 3.742188 -7.390625 3.476562 -6.457031 3.3125 -5.4375 C 3.144531 -4.695312 3.070312 -3.929688 3.09375 -3.140625 C 3.125 -2.347656 3.039062 -1.679688 2.84375 -1.140625 C 2.644531 -0.609375 2.09375 -0.34375 1.1875 -0.34375 Z M 1.1875 -0.34375 "/></g></g></g><path fill="#fffef9" d="M 272.207031 130.070312 C 273.007812 131.351562 273.777344 132.648438 274.519531 133.964844 C 275.261719 135.28125 275.976562 136.609375 276.660156 137.957031 C 277.34375 139.304688 277.996094 140.664062 278.621094 142.039062 C 279.242188 143.414062 279.835938 144.804688 280.394531 146.207031 C 280.957031 147.609375 281.488281 149.019531 281.984375 150.445312 C 282.484375 151.871094 282.949219 153.308594 283.386719 154.753906 C 283.820312 156.199219 284.222656 157.65625 284.59375 159.121094 C 284.964844 160.582031 285.300781 162.054688 285.605469 163.535156 C 285.910156 165.011719 286.183594 166.496094 286.421875 167.988281 C 286.660156 169.480469 286.867188 170.976562 287.039062 172.476562 C 287.210938 173.976562 287.347656 175.480469 287.453125 176.984375 C 287.5625 178.492188 287.632812 180 287.671875 181.507812 C 287.710938 183.019531 287.714844 184.527344 287.6875 186.039062 C 287.660156 187.546875 287.597656 189.058594 287.5 190.5625 C 287.40625 192.070312 287.277344 193.574219 287.113281 195.078125 C 286.953125 196.578125 286.757812 198.074219 286.527344 199.566406 C 286.300781 201.058594 286.039062 202.546875 285.742188 204.027344 C 285.449219 205.507812 285.121094 206.984375 284.761719 208.449219 C 284.402344 209.914062 284.007812 211.375 283.582031 212.824219 C 283.160156 214.273438 282.703125 215.710938 282.214844 217.140625 C 281.722656 218.566406 281.203125 219.984375 280.652344 221.390625 C 280.101562 222.796875 279.519531 224.191406 278.90625 225.570312 C 278.289062 226.949219 277.648438 228.316406 276.972656 229.664062 C 276.296875 231.015625 275.59375 232.351562 274.859375 233.671875 C 274.128906 234.992188 273.363281 236.296875 272.574219 237.582031 C 271.78125 238.867188 270.960938 240.136719 270.113281 241.386719 C 269.265625 242.632812 268.390625 243.863281 267.488281 245.074219 C 266.585938 246.285156 265.65625 247.476562 264.703125 248.644531 C 263.746094 249.816406 262.765625 250.964844 261.761719 252.089844 C 260.753906 253.214844 259.722656 254.320312 258.667969 255.398438 C 257.613281 256.480469 256.535156 257.535156 255.433594 258.566406 C 254.332031 259.601562 253.207031 260.605469 252.058594 261.589844 C 250.910156 262.570312 249.742188 263.527344 248.554688 264.457031 C 247.367188 265.390625 246.15625 266.292969 244.925781 267.167969 C 243.695312 268.046875 242.449219 268.894531 241.179688 269.714844 C 239.914062 270.539062 238.628906 271.332031 237.328125 272.09375 C 236.023438 272.859375 234.707031 273.59375 233.371094 274.300781 C 232.035156 275.003906 230.6875 275.679688 229.320312 276.328125 C 227.957031 276.972656 226.578125 277.585938 225.183594 278.171875 C 223.792969 278.757812 222.386719 279.308594 220.96875 279.832031 C 219.554688 280.355469 218.125 280.84375 216.6875 281.304688 C 215.25 281.761719 213.800781 282.1875 212.34375 282.582031 C 210.882812 282.976562 209.417969 283.339844 207.945312 283.667969 C 206.472656 283.996094 204.992188 284.292969 203.503906 284.558594 C 202.015625 284.820312 200.523438 285.050781 199.027344 285.25 C 197.53125 285.445312 196.03125 285.609375 194.527344 285.738281 C 193.023438 285.871094 191.515625 285.96875 190.007812 286.03125 C 188.496094 286.09375 186.988281 286.125 185.476562 286.121094 C 183.96875 286.117188 182.457031 286.082031 180.949219 286.011719 C 179.441406 285.941406 177.9375 285.835938 176.433594 285.699219 C 174.929688 285.5625 173.429688 285.390625 171.933594 285.1875 C 170.433594 284.984375 168.945312 284.746094 167.457031 284.476562 C 165.972656 284.207031 164.496094 283.902344 163.023438 283.566406 C 161.550781 283.230469 160.085938 282.863281 158.628906 282.464844 C 157.171875 282.0625 155.726562 281.628906 154.289062 281.164062 C 152.855469 280.699219 151.429688 280.203125 150.015625 279.671875 C 148.597656 279.144531 147.195312 278.585938 145.808594 277.996094 C 144.417969 277.40625 143.042969 276.785156 141.679688 276.132812 C 140.316406 275.480469 138.96875 274.796875 137.636719 274.085938 C 136.304688 273.375 134.992188 272.632812 133.691406 271.863281 C 132.394531 271.09375 131.113281 270.296875 129.847656 269.46875 C 128.585938 268.640625 127.339844 267.785156 126.113281 266.90625 C 124.890625 266.023438 123.683594 265.113281 122.5 264.179688 C 121.3125 263.242188 120.148438 262.28125 119.007812 261.292969 C 117.863281 260.304688 116.746094 259.292969 115.648438 258.257812 C 114.550781 257.21875 113.476562 256.15625 112.425781 255.074219 C 111.375 253.988281 110.347656 252.878906 109.347656 251.75 C 108.347656 250.621094 107.371094 249.46875 106.421875 248.292969 C 105.472656 247.121094 104.546875 245.925781 103.648438 244.710938 C 102.753906 243.496094 101.882812 242.261719 101.042969 241.007812 C 100.199219 239.753906 99.386719 238.484375 98.601562 237.195312 C 97.8125 235.90625 97.058594 234.597656 96.328125 233.273438 C 95.601562 231.953125 94.902344 230.613281 94.234375 229.257812 C 93.566406 227.90625 92.929688 226.535156 92.320312 225.152344 C 91.714844 223.769531 91.136719 222.375 90.59375 220.96875 C 90.046875 219.558594 89.535156 218.140625 89.050781 216.710938 C 88.570312 215.277344 88.117188 213.835938 87.699219 212.386719 C 87.28125 210.933594 86.894531 209.476562 86.542969 208.007812 C 86.1875 206.539062 85.867188 205.066406 85.578125 203.582031 C 85.289062 202.101562 85.035156 200.613281 84.8125 199.117188 C 84.589844 197.625 84.402344 196.125 84.246094 194.625 C 84.09375 193.121094 83.96875 191.617188 83.882812 190.109375 C 83.792969 188.601562 83.738281 187.09375 83.714844 185.585938 C 83.695312 184.074219 83.707031 182.566406 83.75 181.054688 C 83.796875 179.546875 83.875 178.039062 83.988281 176.53125 C 84.101562 175.027344 84.246094 173.523438 84.425781 172.023438 C 84.605469 170.523438 84.816406 169.03125 85.0625 167.539062 C 85.308594 166.050781 85.585938 164.566406 85.898438 163.089844 C 86.207031 161.613281 86.554688 160.140625 86.929688 158.679688 C 87.304688 157.21875 87.714844 155.761719 88.15625 154.320312 C 88.597656 152.875 89.070312 151.441406 89.574219 150.019531 C 90.082031 148.59375 90.617188 147.183594 91.183594 145.785156 C 91.753906 144.386719 92.351562 143 92.980469 141.625 C 93.609375 140.253906 94.269531 138.894531 94.957031 137.550781 C 95.648438 136.207031 96.367188 134.882812 97.113281 133.570312 C 97.863281 132.257812 98.640625 130.964844 99.445312 129.6875 L 118.675781 141.820312 C 117.421875 143.808594 116.257812 145.84375 115.1875 147.933594 C 114.113281 150.023438 113.136719 152.15625 112.253906 154.332031 C 111.371094 156.507812 110.585938 158.71875 109.902344 160.964844 C 109.214844 163.207031 108.628906 165.480469 108.144531 167.777344 C 107.660156 170.074219 107.28125 172.390625 107.003906 174.722656 C 106.722656 177.054688 106.550781 179.390625 106.480469 181.738281 C 106.40625 184.085938 106.441406 186.429688 106.578125 188.777344 C 106.71875 191.121094 106.957031 193.453125 107.304688 195.777344 C 107.648438 198.097656 108.097656 200.402344 108.648438 202.683594 C 109.195312 204.964844 109.847656 207.21875 110.597656 209.445312 C 111.347656 211.671875 112.195312 213.859375 113.140625 216.007812 C 114.082031 218.15625 115.121094 220.261719 116.253906 222.316406 C 117.382812 224.375 118.605469 226.378906 119.914062 228.328125 C 121.222656 230.277344 122.617188 232.164062 124.09375 233.988281 C 125.570312 235.8125 127.128906 237.570312 128.761719 239.257812 C 130.394531 240.945312 132.097656 242.554688 133.875 244.089844 C 135.652344 245.625 137.492188 247.078125 139.398438 248.453125 C 141.304688 249.824219 143.265625 251.109375 145.285156 252.304688 C 147.304688 253.503906 149.375 254.609375 151.492188 255.621094 C 153.613281 256.632812 155.769531 257.550781 157.96875 258.375 C 160.167969 259.195312 162.402344 259.917969 164.664062 260.542969 C 166.929688 261.164062 169.214844 261.6875 171.527344 262.105469 C 173.835938 262.527344 176.160156 262.84375 178.5 263.054688 C 180.835938 263.269531 183.179688 263.378906 185.527344 263.382812 C 187.875 263.390625 190.21875 263.289062 192.558594 263.085938 C 194.898438 262.882812 197.222656 262.578125 199.535156 262.167969 C 201.847656 261.757812 204.136719 261.246094 206.40625 260.632812 C 208.671875 260.019531 210.90625 259.308594 213.109375 258.496094 C 215.3125 257.683594 217.476562 256.777344 219.597656 255.773438 C 221.71875 254.769531 223.792969 253.671875 225.820312 252.484375 C 227.84375 251.296875 229.8125 250.019531 231.726562 248.65625 C 233.636719 247.292969 235.484375 245.847656 237.269531 244.320312 C 239.050781 242.792969 240.761719 241.191406 242.402344 239.511719 C 244.042969 237.832031 245.609375 236.082031 247.09375 234.261719 C 248.578125 232.445312 249.980469 230.5625 251.296875 228.621094 C 252.617188 226.675781 253.847656 224.679688 254.988281 222.628906 C 256.128906 220.574219 257.175781 218.476562 258.128906 216.332031 C 259.082031 214.183594 259.941406 212 260.699219 209.78125 C 261.460938 207.558594 262.121094 205.308594 262.679688 203.027344 C 263.242188 200.746094 263.699219 198.445312 264.054688 196.125 C 264.410156 193.804688 264.660156 191.472656 264.808594 189.128906 C 264.957031 186.785156 265 184.4375 264.941406 182.09375 C 264.882812 179.746094 264.71875 177.40625 264.449219 175.070312 C 264.179688 172.738281 263.808594 170.421875 263.335938 168.125 C 262.863281 165.824219 262.289062 163.550781 261.609375 161.300781 C 260.933594 159.050781 260.160156 156.839844 259.289062 154.65625 C 258.414062 152.476562 257.445312 150.339844 256.382812 148.246094 C 255.320312 146.152344 254.167969 144.113281 252.921875 142.121094 Z M 272.207031 130.070312 " fill-opacity="1" fill-rule="nonzero"/><g fill="#122620" fill-opacity="1"><g transform="translate(102.204239, 136.68128)"><g><path d="M 7.640625 9.484375 C 7.003906 10.742188 6.09375 11.722656 4.90625 12.421875 L 3.796875 11 C 4.898438 10.289062 5.679688 9.484375 6.140625 8.578125 C 6.390625 8.066406 6.492188 7.625 6.453125 7.25 C 6.421875 6.882812 6.238281 6.617188 5.90625 6.453125 C 5.570312 6.285156 5.226562 6.273438 4.875 6.421875 C 4.519531 6.578125 4.1875 6.820312 3.875 7.15625 C 3.570312 7.5 3.222656 7.859375 2.828125 8.234375 C 2.441406 8.617188 2.054688 8.960938 1.671875 9.265625 C 1.296875 9.566406 0.847656 9.75 0.328125 9.8125 C -0.179688 9.875 -0.710938 9.765625 -1.265625 9.484375 C -2.117188 9.054688 -2.632812 8.363281 -2.8125 7.40625 C -2.988281 6.457031 -2.804688 5.441406 -2.265625 4.359375 C -1.878906 3.597656 -1.367188 2.9375 -0.734375 2.375 C -0.109375 1.8125 0.578125 1.390625 1.328125 1.109375 L 2.40625 2.546875 C 1.6875 2.816406 1.054688 3.1875 0.515625 3.65625 C -0.0234375 4.125 -0.425781 4.628906 -0.6875 5.171875 C -0.976562 5.742188 -1.097656 6.242188 -1.046875 6.671875 C -1.003906 7.109375 -0.796875 7.414062 -0.421875 7.59375 C -0.0859375 7.769531 0.253906 7.78125 0.609375 7.625 C 0.972656 7.476562 1.304688 7.238281 1.609375 6.90625 C 1.921875 6.570312 2.269531 6.210938 2.65625 5.828125 C 3.039062 5.441406 3.414062 5.097656 3.78125 4.796875 C 4.144531 4.492188 4.582031 4.300781 5.09375 4.21875 C 5.613281 4.144531 6.148438 4.25 6.703125 4.53125 C 7.523438 4.945312 8.019531 5.601562 8.1875 6.5 C 8.363281 7.40625 8.179688 8.398438 7.640625 9.484375 Z M 7.640625 9.484375 "/></g></g></g><g fill="#122620" fill-opacity="1"><g transform="translate(93.061807, 158.620833)"><g><path d="M 8.8125 4.0625 C 9.632812 5.375 9.878906 6.835938 9.546875 8.453125 C 9.222656 10.066406 8.425781 11.3125 7.15625 12.1875 C 5.894531 13.070312 4.492188 13.351562 2.953125 13.03125 C 1.410156 12.71875 0.226562 11.90625 -0.59375 10.59375 C -1.425781 9.289062 -1.675781 7.832031 -1.34375 6.21875 C -1.019531 4.601562 -0.222656 3.351562 1.046875 2.46875 C 2.328125 1.582031 3.738281 1.296875 5.28125 1.609375 C 6.820312 1.929688 8 2.75 8.8125 4.0625 Z M 7.90625 8.125 C 8.125 7.0625 7.941406 6.070312 7.359375 5.15625 C 6.785156 4.25 5.960938 3.6875 4.890625 3.46875 C 3.828125 3.25 2.847656 3.445312 1.953125 4.0625 C 1.054688 4.675781 0.5 5.507812 0.28125 6.5625 C 0.0625 7.625 0.242188 8.601562 0.828125 9.5 C 1.421875 10.394531 2.25 10.953125 3.3125 11.171875 C 4.382812 11.390625 5.363281 11.203125 6.25 10.609375 C 7.132812 10.015625 7.6875 9.1875 7.90625 8.125 Z M 7.90625 8.125 "/></g></g></g><g fill="#122620" fill-opacity="1"><g transform="translate(89.735229, 185.078866)"><g><path d="M 9.8125 8.265625 L 9.5 2.765625 L 6.328125 2.953125 L 6.609375 7.9375 L 4.96875 8.03125 L 4.6875 3.046875 L 0.1875 3.296875 L 0.078125 1.4375 L 11.0625 0.8125 L 11.484375 8.1875 Z M 9.8125 8.265625 "/></g></g></g><g fill="#122620" fill-opacity="1"><g transform="translate(92.680632, 207.769378)"><g><path d="M 11.53125 5.84375 L 10.515625 2.515625 L 1.59375 5.234375 L 1.046875 3.453125 L 9.96875 0.734375 L 8.96875 -2.578125 L 10.578125 -3.0625 L 13.140625 5.359375 Z M 11.53125 5.84375 "/></g></g></g><g fill="#122620" fill-opacity="1"><g transform="translate(100.828184, 229.505521)"><g><path d="M 6.921875 10.703125 L 5.890625 9.109375 L 11.6875 2.265625 L 3.046875 4.71875 L 2 3.09375 L 9.265625 -5.921875 L 10.34375 -4.25 L 4.296875 2.84375 L 13.21875 0.234375 L 14.21875 1.75 L 8.171875 8.828125 L 17.109375 6.21875 L 18.140625 7.828125 Z M 6.921875 10.703125 "/></g></g></g><g fill="#122620" fill-opacity="1"><g transform="translate(119.291339, 253.642585)"><g><path d="M 8.125 3.640625 L 3.890625 0.046875 L 1.484375 1.265625 L 0.015625 0.015625 L 10.84375 -5.21875 L 12.28125 -3.984375 L 8.8125 7.5 L 7.3125 6.21875 Z M 8.640625 1.9375 L 10.234375 -3.125 L 5.484375 -0.75 Z M 8.640625 1.9375 "/></g></g></g><g fill="#122620" fill-opacity="1"><g transform="translate(139.941301, 268.753095)"><g><path d="M 7.625 3.59375 L 7.21875 -0.28125 C 7.113281 -0.320312 6.957031 -0.390625 6.75 -0.484375 L 4.390625 -1.59375 L 2.984375 1.40625 L 1.296875 0.609375 L 5.984375 -9.34375 L 10.03125 -7.4375 C 11.300781 -6.84375 12.144531 -6.082031 12.5625 -5.15625 C 12.976562 -4.238281 12.929688 -3.238281 12.421875 -2.15625 C 12.046875 -1.363281 11.550781 -0.769531 10.9375 -0.375 C 10.332031 0.0078125 9.640625 0.171875 8.859375 0.109375 L 9.515625 4.484375 Z M 5.109375 -3.109375 L 7.46875 -2 C 9.082031 -1.238281 10.203125 -1.519531 10.828125 -2.84375 C 11.429688 -4.132812 10.925781 -5.160156 9.3125 -5.921875 L 6.953125 -7.03125 Z M 5.109375 -3.109375 "/></g></g></g><g fill="#122620" fill-opacity="1"><g transform="translate(163.574037, 277.811083)"><g><path d="M 10.828125 -7.484375 L 4.9375 -8.578125 L 4.40625 -5.65625 L 9.6875 -4.6875 L 9.375 -3.046875 L 4.09375 -4.015625 L 3.546875 -1.046875 L 9.625 0.078125 L 9.328125 1.71875 L 1.40625 0.265625 L 3.390625 -10.546875 L 11.125 -9.125 Z M 10.828125 -7.484375 "/></g></g></g><g fill="#122620" fill-opacity="1"><g transform="translate(187.461112, 280.342241)"><g/></g></g><g fill="#122620" fill-opacity="1"><g transform="translate(205.187614, 278.548928)"><g><path d="M 6.65625 -11.359375 L 0.84375 -9.859375 L 1.59375 -6.984375 L 6.796875 -8.328125 L 7.21875 -6.703125 L 2.015625 -5.359375 L 2.765625 -2.453125 L 8.765625 -4 L 9.1875 -2.375 L 1.390625 -0.359375 L -1.375 -11.015625 L 6.234375 -12.984375 Z M 6.65625 -11.359375 "/></g></g></g><g fill="#122620" fill-opacity="1"><g transform="translate(228.231486, 270.813533)"><g><path d="M 9.53125 -5.421875 L 7.953125 -4.53125 L -1.046875 -8.484375 L 2.859375 -1.625 L 1.25 -0.71875 L -4.1875 -10.28125 L -2.59375 -11.171875 L 6.421875 -7.21875 L 2.515625 -14.09375 L 4.09375 -14.984375 Z M 9.53125 -5.421875 "/></g></g></g><g fill="#122620" fill-opacity="1"><g transform="translate(250.206779, 256.053158)"><g><path d="M 2.46875 -10.171875 L 3.609375 -11.328125 L 6.5 -8.46875 C 6.40625 -7.757812 6.179688 -7.035156 5.828125 -6.296875 C 5.472656 -5.566406 5.035156 -4.941406 4.515625 -4.421875 C 3.367188 -3.265625 2.019531 -2.671875 0.46875 -2.640625 C -1.082031 -2.609375 -2.414062 -3.144531 -3.53125 -4.25 C -4.644531 -5.351562 -5.179688 -6.679688 -5.140625 -8.234375 C -5.097656 -9.785156 -4.492188 -11.15625 -3.328125 -12.34375 C -2.773438 -12.882812 -2.132812 -13.320312 -1.40625 -13.65625 C -0.6875 -14 0.03125 -14.191406 0.75 -14.234375 L 0.96875 -12.546875 C -0.25 -12.492188 -1.289062 -12.035156 -2.15625 -11.171875 C -2.9375 -10.378906 -3.332031 -9.441406 -3.34375 -8.359375 C -3.351562 -7.273438 -2.972656 -6.351562 -2.203125 -5.59375 C -1.421875 -4.8125 -0.488281 -4.4375 0.59375 -4.46875 C 1.6875 -4.5 2.625 -4.90625 3.40625 -5.6875 C 4 -6.289062 4.414062 -7.066406 4.65625 -8.015625 Z M 2.46875 -10.171875 "/></g></g></g><g fill="#122620" fill-opacity="1"><g transform="translate(266.731945, 236.582075)"><g><path d="M 1.734375 -2.8125 L 0.75 -1.21875 L -8.609375 -6.984375 L -7.625 -8.578125 Z M 1.734375 -2.8125 "/></g></g></g><g fill="#122620" fill-opacity="1"><g transform="translate(275.469427, 220.159112)"><g><path d="M 3.4375 -10.421875 L 2.875 -8.703125 L -6.46875 -5.59375 L 1.03125 -3.125 L 0.453125 -1.359375 L -10 -4.796875 L -9.4375 -6.53125 L -0.0625 -9.671875 L -7.578125 -12.140625 L -7.015625 -13.859375 Z M 3.4375 -10.421875 "/></g></g></g><g fill="#122620" fill-opacity="1"><g transform="translate(281.833057, 194.518133)"><g><path d="M -8.8125 -9.796875 L -9.125 -3.8125 L -6.15625 -3.640625 L -5.875 -9 L -4.21875 -8.90625 L -4.5 -3.546875 L -1.484375 -3.390625 L -1.15625 -9.5625 L 0.515625 -9.46875 L 0.078125 -1.4375 L -10.90625 -2.03125 L -10.484375 -9.875 Z M -8.8125 -9.796875 "/></g></g></g><g fill="#122620" fill-opacity="1"><g transform="translate(281.397726, 170.291469)"><g><path d="M -10.96875 -7.28125 L -9.78125 -1.40625 L -6.875 -1.984375 L -7.9375 -7.25 L -6.296875 -7.578125 L -5.234375 -2.3125 L -2.28125 -2.90625 L -3.5 -8.96875 L -1.859375 -9.296875 L -0.28125 -1.40625 L -11.0625 0.75 L -12.609375 -6.953125 Z M -10.96875 -7.28125 "/></g></g></g><g fill="#122620" fill-opacity="1"><g transform="translate(274.948211, 146.898245)"><g><path d="M -3.703125 -7.5625 L -5.796875 -4.28125 C -5.742188 -4.195312 -5.664062 -4.050781 -5.5625 -3.84375 L -4.421875 -1.5 L -1.453125 -2.953125 L -0.625 -1.296875 L -10.5 3.546875 L -12.46875 -0.453125 C -13.09375 -1.722656 -13.28125 -2.847656 -13.03125 -3.828125 C -12.78125 -4.816406 -12.117188 -5.570312 -11.046875 -6.09375 C -10.253906 -6.476562 -9.5 -6.628906 -8.78125 -6.546875 C -8.0625 -6.460938 -7.414062 -6.15625 -6.84375 -5.625 L -4.625 -9.4375 Z M -5.921875 -0.765625 L -7.0625 -3.109375 C -7.851562 -4.710938 -8.910156 -5.191406 -10.234375 -4.546875 C -11.515625 -3.910156 -11.757812 -2.789062 -10.96875 -1.1875 L -9.828125 1.15625 Z M -5.921875 -0.765625 "/></g></g></g></svg>